<svg width="1200" height="500" viewBox="0 0 1200 500" fill="none" xmlns="http://www.w3.org/2000/svg">
<defs>
<linearGradient id="bg" x1="0" y1="0" x2="1200" y2="500" gradientUnits="userSpaceOnUse"><stop stop-color="#070B18"/><stop offset=".52" stop-color="#0D1530"/><stop offset="1" stop-color="#151033"/></linearGradient>
<radialGradient id="g1" cx="0" cy="0" r="1" gradientUnits="userSpaceOnUse" gradientTransform="translate(930 145) rotate(130) scale(310 260)"><stop stop-color="#6677FF" stop-opacity=".30"/><stop offset="1" stop-color="#6677FF" stop-opacity="0"/></radialGradient>
<radialGradient id="g2" cx="0" cy="0" r="1" gradientUnits="userSpaceOnUse" gradientTransform="translate(680 420) rotate(-15) scale(300 180)"><stop stop-color="#37D6D0" stop-opacity=".18"/><stop offset="1" stop-color="#37D6D0" stop-opacity="0"/></radialGradient>
<linearGradient id="edge" x1="0" y1="0" x2="1" y2="1"><stop stop-color="#7B8CFF" stop-opacity=".75"/><stop offset="1" stop-color="#49D8D1" stop-opacity=".45"/></linearGradient>
<linearGradient id="glass" x1="0" y1="0" x2="1" y2="1"><stop stop-color="white" stop-opacity=".13"/><stop offset=".5" stop-color="white" stop-opacity=".045"/><stop offset="1" stop-color="#8B7CFF" stop-opacity=".09"/></linearGradient>
<filter id="blur"><feGaussianBlur stdDeviation="18"/></filter><filter id="soft"><feGaussianBlur stdDeviation="5"/></filter><filter id="shadow"><feDropShadow dx="0" dy="18" stdDeviation="20" flood-opacity=".35"/></filter>
<pattern id="grid" width="44" height="44" patternUnits="userSpaceOnUse"><path d="M44 0H0V44" stroke="#9AA7D9" stroke-opacity=".09"/></pattern>
<linearGradient id="line" x1="0" y1="0" x2="1" y2="0"><stop stop-color="#7B8CFF" stop-opacity=".15"/><stop offset=".5" stop-color="#67E2DB" stop-opacity=".75"/><stop offset="1" stop-color="#9D7BFF" stop-opacity=".15"/></linearGradient>
</defs>
<rect width="1200" height="500" rx="34" fill="url(#bg)"/><rect width="1200" height="500" rx="34" fill="url(#grid)"/><rect width="1200" height="500" rx="34" fill="url(#g1)"/><rect width="1200" height="500" rx="34" fill="url(#g2)"/>
<ellipse cx="900" cy="205" rx="220" ry="120" fill="#6375FF" fill-opacity=".08" filter="url(#blur)"/><ellipse cx="720" cy="390" rx="190" ry="80" fill="#39D5D0" fill-opacity=".07" filter="url(#blur)"/>
<g opacity=".28"><path d="M570 455L780 270M650 455L825 270M730 455L870 270M810 455L915 270M890 455L960 270M970 455L1005 270M1050 455V270" stroke="#7180FF" stroke-opacity=".35"/><path d="M530 455H1090M555 420H1070M590 385H1050M630 350H1030M675 320H1015M720 294H1000" stroke="#7180FF" stroke-opacity=".25"/></g>
<text x="72" y="92" fill="#9DAAFF" font-family="Arial,Helvetica,sans-serif" font-size="14" letter-spacing="5">DATA SCIENCE</text>
<text x="72" y="158" fill="#F4F7FF" font-family="Arial,Helvetica,sans-serif" font-size="48" font-weight="700">Naga Himaja</text><text x="72" y="212" fill="#F4F7FF" font-family="Arial,Helvetica,sans-serif" font-size="48" font-weight="700">Ganugapati</text>
<rect x="72" y="252" width="330" height="1" fill="url(#line)"/><text x="72" y="288" fill="#B9C3E8" font-family="Arial,Helvetica,sans-serif" font-size="18">Learning with intent</text><text x="72" y="323" fill="#7784AC" font-family="Arial,Helvetica,sans-serif" font-size="13" letter-spacing="3">LEARN   BUILD   UNDERSTAND</text>
<g filter="url(#shadow)"><path d="M665 102L1045 150L1000 355L620 306Z" fill="url(#glass)" stroke="url(#edge)" stroke-width="1.2"/></g>
<g opacity=".22"><path d="M690 124L1030 166M682 158L1022 201M675 192L1015 235M668 226L1008 268M660 260L1001 302M734 111L690 316M802 120L758 324M870 128L826 333M938 137L894 341" stroke="#B4C0FF"/></g>
<g><path d="M745 171L853 232L937 183L974 286L820 274L745 171M853 232L820 274M937 183L820 274" stroke="#7184FF" stroke-opacity=".72" stroke-width="1.5"/><circle cx="745" cy="171" r="7" fill="#8D9BFF"/><circle cx="853" cy="232" r="6" fill="#5BD8D2"/><circle cx="937" cy="183" r="6" fill="#A67FFF"/><circle cx="974" cy="286" r="7" fill="#8D9BFF"/><circle cx="820" cy="274" r="6" fill="#5BD8D2"/><circle cx="745" cy="171" r="15" fill="#8D9BFF" fill-opacity=".08" filter="url(#soft)"/><circle cx="937" cy="183" r="15" fill="#A67FFF" fill-opacity=".08" filter="url(#soft)"/></g>
<g filter="url(#shadow)"><rect x="565" y="360" width="290" height="72" rx="16" fill="#11182D" fill-opacity=".78" stroke="#7B8CFF" stroke-opacity=".25"/><circle cx="592" cy="396" r="8" fill="#59D8D1"/><text x="615" y="391" fill="#F0F3FF" font-family="Arial,Helvetica,sans-serif" font-size="14" font-weight="700">DATA · CODE · IDEAS</text><text x="615" y="413" fill="#7F8BAF" font-family="Arial,Helvetica,sans-serif" font-size="12">building one concept at a time</text></g>
<g><circle cx="1080" cy="95" r="3" fill="#8C9BFF"/><circle cx="1105" cy="126" r="2" fill="#55D8D0"/><circle cx="1030" cy="390" r="3" fill="#A57FFF"/><circle cx="480" cy="380" r="2" fill="#7B8CFF"/><circle cx="440" cy="120" r="2" fill="#58D8D1"/></g>
<rect x="1" y="1" width="1198" height="498" rx="33" stroke="#9AA7D9" stroke-opacity=".14" stroke-width="2"/>
</svg>
